<?xml version="1.0" standalone="no"?>
<!DOCTYPE svg PUBLIC "-//W3C//DTD SVG 20010904//EN"
 "http://www.w3.org/TR/2001/REC-SVG-20010904/DTD/svg10.dtd">
<svg version="1.0" xmlns="http://www.w3.org/2000/svg"
 width="159.000000pt" height="157.000000pt" viewBox="0 0 159.000000 157.000000"
 preserveAspectRatio="xMidYMid meet">

<g transform="translate(0.000000,157.000000) scale(0.100000,-0.100000)"
fill="#000000" stroke="none">
<path d="M736 1419 c-38 -30 -49 -55 -36 -80 14 -26 30 -21 50 17 19 32 44 42
65 24 23 -19 18 -46 -10 -58 -14 -7 -29 -21 -33 -33 -6 -15 -71 -50 -233 -125
-150 -69 -233 -113 -251 -133 -35 -39 -47 -97 -24 -119 20 -20 24 -19 310 105
l219 95 116 -50 c64 -28 174 -76 245 -107 70 -31 138 -55 150 -53 32 5 35 69
4 114 -24 37 -23 36 -309 171 l-165 79 28 27 c79 79 -38 196 -126 126z m172
-248 c53 -26 150 -72 214 -101 109 -49 159 -82 145 -96 -3 -3 -110 40 -237 97
l-232 102 -186 -81 c-103 -44 -213 -92 -244 -106 -43 -19 -58 -22 -58 -12 0 7
7 20 17 27 23 20 445 217 466 218 9 1 61 -21 115 -48z"/>
<path d="M1132 773 c2 -10 12 -19 23 -21 18 -3 19 -2 2 8 -9 6 -15 15 -12 21
4 5 1 9 -5 9 -6 0 -10 -8 -8 -17z"/>
<path d="M1063 693 c15 -2 39 -2 55 0 15 2 2 4 -28 4 -30 0 -43 -2 -27 -4z"/>
<path d="M316 659 c-18 -22 -26 -42 -26 -70 0 -42 21 -93 42 -103 11 -5 11 -7
0 -12 -21 -10 -42 -61 -42 -104 0 -53 47 -107 105 -120 22 -5 207 -10 410 -10
365 0 371 0 415 23 80 40 101 130 45 195 -19 22 -21 28 -9 37 8 6 21 28 28 49
16 47 7 90 -28 124 -19 20 -27 22 -44 13 -11 -6 -69 -12 -129 -13 l-108 -2
108 -5 c104 -6 110 -7 133 -34 31 -36 30 -62 -1 -92 l-24 -25 -401 0 -401 0
-24 25 c-32 32 -31 60 3 94 l27 28 -22 16 c-28 22 -27 22 -57 -14z m901 -234
c30 -34 29 -70 -2 -100 l-24 -25 -391 0 c-465 0 -460 -1 -450 95 5 58 44 62
515 59 l329 -2 23 -27z"/>
<path d="M1130 395 c-19 -23 -4 -45 29 -45 35 0 50 28 25 47 -23 17 -39 16
-54 -2z"/>
<path d="M488 663 c12 -2 32 -2 45 0 12 2 2 4 -23 4 -25 0 -35 -2 -22 -4z"/>
<path d="M1141 601 c-21 -13 -5 -41 23 -41 33 0 44 20 21 37 -22 15 -25 16
-44 4z"/>
</g>
</svg>
